<?xml version="1.0" standalone="no"?>
<!DOCTYPE svg PUBLIC "-//W3C//DTD SVG 20010904//EN"
 "http://www.w3.org/TR/2001/REC-SVG-20010904/DTD/svg10.dtd">
<svg version="1.0" xmlns="http://www.w3.org/2000/svg"
 width="16" height="16" viewBox="0 0 1000.000000 667.000000">

<g transform="translate(0.000000,667.000000) scale(0.100000,-0.100000)"
fill="#000000" stroke="none">
<path d="M4792 5501 c-87 -58 -193 -112 -277 -139 -211 -70 -478 -80 -705 -25
-91 22 -237 92 -317 152 -37 28 -73 49 -80 47 -20 -8 -734 -648 -740 -663 -3
-8 31 -52 86 -108 131 -135 200 -249 256 -420 52 -161 69 -386 41 -536 -21
-106 -83 -289 -158 -464 -142 -329 -188 -492 -188 -660 0 -409 269 -814 666
-1004 146 -71 213 -85 624 -136 435 -54 630 -116 815 -260 l57 -44 62 50 c75
61 208 129 318 163 129 39 260 62 572 101 170 22 323 46 370 60 256 74 488
244 649 476 119 171 175 336 184 547 9 211 -22 336 -173 694 -148 351 -192
526 -179 718 19 299 122 537 315 728 69 68 82 87 74 100 -11 18 -698 635 -725
652 -13 7 -33 -3 -89 -45 -177 -135 -408 -196 -679 -182 -225 13 -432 82 -635
212 -30 19 -59 35 -63 35 -4 0 -41 -22 -81 -49z m156 -165 c105 -61 231 -111
354 -142 126 -32 385 -44 519 -24 158 23 338 87 445 160 40 27 49 29 63 17 27
-23 494 -439 520 -463 l24 -23 -35 -43 c-131 -161 -239 -396 -285 -623 -23
-114 -23 -336 0 -445 28 -132 88 -299 175 -490 143 -314 167 -404 159 -603 -5
-156 -20 -216 -86 -352 -59 -121 -126 -211 -246 -330 -188 -188 -231 -203
-803 -285 -229 -33 -460 -71 -512 -85 -102 -28 -251 -94 -325 -145 l-46 -32
-62 41 c-136 88 -297 145 -500 175 -56 9 -232 34 -392 56 -159 22 -321 50
-360 61 -148 44 -289 131 -411 253 -171 173 -268 365 -295 586 -22 183 17 343
156 640 90 192 157 386 181 520 30 177 10 449 -47 625 -34 102 -136 296 -204
385 -35 47 -64 88 -65 91 0 4 124 117 275 253 l275 246 66 -39 c87 -52 195
-97 313 -129 89 -24 112 -26 311 -26 203 -1 221 1 324 27 123 31 257 85 361
146 39 22 71 41 73 41 2 0 38 -20 80 -44z"/>
<path d="M5800 4554 c-104 -48 -195 -176 -241 -339 -33 -116 -33 -289 -1 -361
27 -60 62 -97 113 -118 114 -47 309 -17 393 62 83 78 89 226 13 318 -42 50
-97 74 -177 74 -84 0 -127 -13 -190 -56 l-51 -35 6 38 c33 190 107 323 198
358 50 19 89 9 108 -26 16 -32 5 -108 -27 -180 -31 -67 -26 -79 31 -79 111 0
177 164 114 286 -33 63 -73 84 -164 84 -54 0 -83 -6 -125 -26z m245 -294 c-3
-5 -16 -15 -28 -21 -19 -9 -19 -8 3 10 28 23 34 26 25 11z m-78 -160 c46 -28
66 -64 67 -120 2 -84 -55 -135 -166 -150 -225 -32 -287 169 -84 270 54 27 139
27 183 0z m-271 -348 c-5 -4 -66 26 -66 33 0 3 16 -3 35 -12 19 -9 33 -18 31
-21z"/>
<path d="M3823 4126 c-130 -41 -236 -181 -289 -381 -23 -85 -25 -239 -5 -309
19 -64 90 -140 146 -155 117 -32 279 0 360 71 56 50 75 89 75 159 0 45 -4 55
-34 85 -35 35 -63 42 -97 24 -19 -10 -18 -12 5 -33 65 -58 16 -162 -92 -193
-103 -30 -184 -7 -226 65 -59 102 -4 413 94 524 66 74 140 97 181 56 18 -18
21 -30 17 -78 -2 -32 -16 -81 -31 -115 -31 -67 -27 -80 27 -80 49 0 84 22 111
69 65 113 21 264 -86 295 -45 13 -105 12 -156 -4z m192 -316 c-3 -5 -16 -15
-28 -21 -19 -9 -19 -8 3 10 28 23 34 26 25 11z m80 -285 c6 -30 6 -30 -10 4
-17 38 -19 49 -6 36 5 -6 12 -23 16 -40z"/>
<path d="M4298 4109 c-34 -13 -48 -54 -94 -276 -53 -263 -44 -380 32 -399 37
-9 102 25 132 70 l23 34 29 -29 c25 -25 36 -29 85 -29 53 0 60 3 96 39 33 33
41 36 51 24 36 -44 111 -32 157 24 l31 37 26 -25 c21 -20 35 -24 83 -23 155 3
203 121 131 317 -17 48 -29 94 -26 102 8 21 -27 37 -72 33 -37 -3 -37 -4 -62
-79 -16 -48 -35 -85 -52 -100 -15 -13 -37 -49 -48 -79 -58 -150 -92 -115 -54
55 8 39 18 85 21 103 l6 32 -52 0 c-36 0 -56 -5 -69 -18 -13 -13 -29 -17 -59
-14 -79 8 -156 -35 -192 -107 -11 -20 -33 -72 -50 -117 -38 -98 -55 -124 -72
-107 -15 15 8 154 61 370 29 118 36 159 27 165 -16 10 -56 9 -89 -3z m-10 -49
c-7 -10 -14 -18 -15 -16 -6 6 9 36 18 36 5 0 4 -9 -3 -20z m185 -242 c-11 -13
-25 -32 -31 -43 -6 -11 -12 -15 -12 -8 0 12 48 73 58 73 3 0 -4 -10 -15 -22z
m155 -41 c4 -66 -22 -151 -54 -176 -32 -25 -38 -26 -58 -5 -46 46 28 241 88
232 18 -3 22 -11 24 -51z m356 21 c10 -38 7 -103 -6 -116 -7 -7 -20 -12 -30
-12 -41 0 -34 69 8 89 20 9 24 15 16 23 -14 14 -16 38 -3 38 5 0 11 -10 15
-22z m-11 -225 c-7 -2 -21 -2 -30 0 -10 3 -4 5 12 5 17 0 24 -2 18 -5z m-487
-71 c-7 -7 -46 9 -46 18 0 5 11 4 25 -2 14 -6 23 -13 21 -16z m-232 -51 c-2
-3 -12 3 -22 13 -16 17 -16 18 5 5 12 -7 20 -15 17 -18z"/>
<path d="M5242 3975 c-24 -75 -37 -101 -66 -128 -31 -30 -36 -40 -36 -81 0
-105 55 -161 149 -152 60 5 94 26 129 76 33 49 30 127 -8 232 -16 45 -30 92
-30 105 0 27 -27 43 -74 43 l-35 0 -29 -95z m76 -163 c3 -37 0 -52 -13 -66
-26 -26 -49 -16 -53 22 -3 26 1 34 23 44 22 10 25 16 19 42 -5 25 -4 29 6 19
7 -6 15 -34 18 -61z m-32 -180 c-16 -2 -32 0 -37 5 -5 5 7 7 29 4 34 -5 35 -6
8 -9z"/>
<path d="M4760 3417 c-16 -8 -29 -27 -37 -57 -13 -42 -45 -199 -58 -282 l-6
-36 -65 -7 c-36 -4 -67 -5 -69 -3 -3 2 2 38 11 79 18 86 12 160 -16 207 -24
39 -65 57 -96 43 l-22 -10 23 -46 c28 -55 40 -134 30 -204 -9 -63 -14 -64
-144 -19 -86 30 -95 31 -120 17 -14 -8 -37 -35 -50 -59 -46 -83 -26 -177 49
-227 39 -27 125 -31 169 -9 34 18 87 77 107 120 l15 31 89 1 88 1 4 -58 c5
-71 19 -89 69 -89 44 0 45 3 24 53 -8 20 -15 56 -15 79 0 38 3 45 30 57 47 20
65 54 50 91 -12 30 -13 30 -37 14 -14 -8 -26 -14 -28 -12 -5 5 40 210 59 272
8 27 13 53 10 58 -7 12 -35 10 -64 -5z m-482 -392 c26 -13 65 -31 86 -38 22
-7 41 -18 43 -23 5 -14 -56 -74 -85 -85 -38 -15 -78 -10 -97 11 -24 27 -24
160 1 160 2 0 26 -11 52 -25z m462 -25 c-8 -5 -22 -9 -30 -9 -10 0 -8 3 5 9
27 12 43 12 25 0z m-470 -191 c10 -6 4 -7 -15 -3 -16 4 -37 11 -45 15 -10 6
-4 7 15 3 17 -4 37 -11 45 -15z"/>
<path d="M5734 3340 c-54 -27 -85 -83 -91 -164 -5 -75 9 -105 58 -124 81 -31
177 32 219 144 11 31 19 64 18 73 -7 34 -34 14 -63 -48 -17 -35 -41 -72 -54
-82 -31 -25 -77 -25 -91 0 -15 29 -13 31 29 31 43 0 85 33 95 76 10 39 -12 94
-41 105 -32 12 -32 12 -79 -11z m-14 -34 c0 -2 -8 -10 -17 -17 -16 -13 -17
-12 -4 4 13 16 21 21 21 13z m86 -21 c11 -28 -5 -62 -36 -75 -17 -7 -33 -10
-36 -8 -9 10 7 55 27 77 23 25 37 27 45 6z"/>
<path d="M5473 3273 c-10 -32 -25 -64 -34 -70 -9 -7 -27 -38 -40 -68 -12 -30
-26 -55 -31 -55 -13 0 -9 80 7 140 8 30 15 56 15 58 0 9 -79 0 -87 -10 -5 -7
-17 -53 -27 -102 -23 -121 -55 -178 -73 -130 -6 15 12 170 23 199 5 12 -3 15
-34 15 -22 0 -45 -6 -51 -14 -6 -7 -14 -63 -18 -124 -6 -110 -6 -110 21 -137
33 -33 68 -28 106 14 24 26 26 27 43 9 26 -28 64 -23 97 14 28 30 30 31 48 15
26 -23 87 -22 123 4 53 37 58 118 14 223 -9 21 -14 44 -11 51 5 15 -14 25 -49
25 -20 0 -27 -9 -42 -57z m45 -134 c-2 -32 -8 -45 -21 -47 -25 -5 -32 25 -11
49 11 12 17 31 16 43 -3 16 -1 18 8 10 6 -6 10 -31 8 -55z m-321 -165 c-3 -3
-12 -4 -19 -1 -8 3 -5 6 6 6 11 1 17 -2 13 -5z"/>
<path d="M4924 3191 c-41 -25 -67 -83 -72 -161 -3 -55 -1 -69 17 -92 44 -56
161 -41 202 26 24 39 25 104 2 136 -10 14 -16 33 -15 43 2 10 -4 29 -12 43
-20 30 -77 33 -122 5z m89 -45 c3 -7 -7 -23 -24 -35 -30 -22 -41 -73 -19 -86
6 -3 10 0 10 7 0 20 20 37 36 31 34 -13 -1 -93 -40 -93 -22 0 -46 28 -46 53 0
38 19 92 40 115 24 25 36 28 43 8z"/>
<path d="M5590 2765 l0 -95 325 0 325 0 0 95 0 95 -325 0 -325 0 0 -95z m635
0 l0 -75 -307 0 -308 0 0 75 0 75 308 0 307 0 0 -75z"/>
<path d="M5640 2765 l0 -55 40 0 c22 0 40 5 40 10 0 6 -16 10 -35 10 -24 0
-35 5 -35 15 0 10 10 15 30 15 17 0 30 5 30 10 0 6 -13 10 -30 10 -16 0 -30 5
-30 10 0 6 13 10 29 10 17 0 33 5 36 10 4 6 -10 10 -34 10 l-41 0 0 -55z"/>
<path d="M5907 2813 c-14 -13 -6 -20 18 -15 18 3 25 0 25 -12 0 -8 -11 -23
-25 -32 -34 -22 -32 -44 4 -44 17 0 33 5 36 10 4 6 -5 10 -21 10 l-27 0 27 25
c14 13 26 28 26 33 0 23 -46 42 -63 25z"/>
<path d="M5984 2796 c-14 -56 17 -104 50 -77 19 16 21 72 4 89 -20 20 -47 14
-54 -12z m46 -31 c0 -24 -5 -35 -15 -35 -15 0 -17 5 -17 35 0 30 2 35 17 35
10 0 15 -11 15 -35z"/>
<path d="M6088 2806 c-22 -16 -23 -27 -4 -20 11 4 16 -5 19 -38 3 -38 4 -37 5
15 1 31 1 57 0 57 -2 0 -11 -7 -20 -14z"/>
<path d="M6150 2805 c-18 -22 -1 -50 29 -49 12 0 20 -4 18 -10 -2 -6 -14 -11
-26 -10 -24 1 -28 -14 -6 -22 27 -11 46 16 43 60 -2 33 -7 42 -24 44 -11 2
-27 -4 -34 -13z m48 -17 c-7 -19 -38 -22 -38 -4 0 10 9 16 21 16 12 0 19 -5
17 -12z"/>
<path d="M5808 2798 c-7 -21 6 -81 18 -85 9 -3 10 15 5 90 -1 12 -19 8 -23 -5z"/>
<path d="M5737 2783 c-13 -12 -7 -22 21 -38 l27 -16 -30 6 c-29 6 -29 6 -12
-12 13 -14 21 -15 35 -7 24 16 21 38 -5 42 -13 2 -23 8 -23 13 0 6 9 7 20 4
11 -4 20 -2 20 4 0 12 -43 15 -53 4z"/>
<path d="M5850 2750 c0 -5 9 -10 20 -10 11 0 20 5 20 10 0 6 -9 10 -20 10 -11
0 -20 -4 -20 -10z"/>
</g>
</svg>
